<svg xmlns="http://www.w3.org/2000/svg" viewBox="0 0 456.09 117.46"><defs><style>.cls-1,.cls-2{fill:#dcb464;}.cls-2{stroke:#dcb464;stroke-miterlimit:10;stroke-width:3px;}</style></defs><title>logo eng</title><g id="Слой_2" data-name="Слой 2"><g id="Слой_4" data-name="Слой 4"><path class="cls-1" d="M59,44.17H47.92v36H44.14v-36H33l.48-1.9H58.6Z"/><path class="cls-2" d="M151.5,18.07H137.28V64.19h-4.84V18.07H118.15l.61-2.44H151Z"/><path class="cls-2" d="M194.19,64.19,179.7,37.5h-6.43V64.19h-4.88V15.63H187A10.31,10.31,0,0,1,195,19a11.28,11.28,0,0,1,3,7.48,9.79,9.79,0,0,1-3,7.55q-3.52,3.39-10.12,3.42L199.4,64.19ZM173.26,35.06h11.38a7.86,7.86,0,0,0,6.3-2.64,8.64,8.64,0,0,0,2.13-5.89,8.55,8.55,0,0,0-2.13-5.82,7.92,7.92,0,0,0-6.3-2.64H173.26Z"/><path class="cls-2" d="M218.15,64.19V15.63H223V64.19Z"/><path class="cls-2" d="M278.68,15.63V45.93a21.47,21.47,0,0,1-4.5,13.75q-4.57,5.69-10.94,5.69a16.51,16.51,0,0,1-12.63-5.69,19.48,19.48,0,0,1-5.28-13.75V15.63h4.88V45.93q0,8.06,4.1,12.7a11.45,11.45,0,0,0,8.94,4.23,11.25,11.25,0,0,0,8.94-4.23q4.1-4.64,4.1-12.7V15.63Z"/><path class="cls-2" d="M346,15.63V64.19h-4.88V21.76L322.22,67.37,303.29,21.76V64.19h-2.44V15.63H306l17.54,42.26L341,15.63Z"/><path class="cls-2" d="M386.78,15.63a14.57,14.57,0,0,1,14.56,14.56,14.57,14.57,0,0,1-14.56,14.59H373v19.4h-4.88V15.63Zm-2.4,26.72a11.51,11.51,0,0,0,9.08-3.83,12.16,12.16,0,0,0,3-8.33,12,12,0,0,0-3-8.3,11.31,11.31,0,0,0-9-3.83H373V42.35Z"/><path class="cls-2" d="M454.59,15.63V64.19h-4.84V35.06h-23V64.19h-4.88V15.63h4.88v17h23v-17Z"/><path class="cls-1" d="M46,0,0,46V71.5l46,46,46-46V46ZM88.52,70.09,46,112.65,3.4,70.09V47.37L46,4.82,88.52,47.37Z"/><rect class="cls-1" x="33.78" y="95.15" width="2.46" height="2.46" transform="translate(-57.88 52.96) rotate(-44.99)"/><rect class="cls-1" x="30.3" y="91.67" width="2.46" height="2.46" transform="translate(-56.44 49.48) rotate(-44.99)"/><rect class="cls-1" x="26.82" y="88.18" width="2.46" height="2.46" transform="translate(-55 46) rotate(-44.99)"/><rect class="cls-1" x="23.34" y="84.7" width="2.46" height="2.46" transform="translate(-53.56 42.52) rotate(-44.98)"/><rect class="cls-1" x="19.86" y="81.22" width="2.46" height="2.46" transform="translate(-52.13 39.06) rotate(-45)"/><rect class="cls-1" x="69.61" y="81.22" width="2.46" height="2.46" transform="translate(-37.55 74.21) rotate(-44.99)"/><rect class="cls-1" x="66.13" y="84.7" width="2.46" height="2.46" transform="translate(-41.03 72.77) rotate(-44.98)"/><rect class="cls-1" x="62.65" y="88.18" width="2.46" height="2.46" transform="translate(-44.51 71.33) rotate(-44.99)"/><rect class="cls-1" x="59.17" y="91.67" width="2.46" height="2.46" transform="translate(-47.99 69.89) rotate(-44.99)"/><rect class="cls-1" x="55.69" y="95.15" width="2.46" height="2.46" transform="translate(-51.49 68.53) rotate(-45.03)"/><polygon class="cls-1" points="45.96 105.59 38.49 98.12 36.75 99.86 45.96 109.07 55.18 99.86 53.44 98.12 45.96 105.59"/><rect class="cls-1" x="19.86" y="34.21" width="2.46" height="2.46" transform="translate(-18.89 25.29) rotate(-45)"/><rect class="cls-1" x="23.34" y="30.73" width="2.46" height="2.46" transform="translate(-15.41 26.73) rotate(-45)"/><rect class="cls-1" x="26.82" y="27.25" width="2.46" height="2.46" transform="translate(-11.93 28.17) rotate(-45)"/><rect class="cls-1" x="30.3" y="23.77" width="2.46" height="2.46" transform="translate(-8.44 29.62) rotate(-45)"/><rect class="cls-1" x="33.78" y="20.29" width="2.46" height="2.46" transform="translate(-4.96 31.06) rotate(-45)"/><rect class="cls-1" x="55.69" y="19.86" width="2.46" height="2.46" transform="translate(1.77 46.44) rotate(-45.01)"/><rect class="cls-1" x="59.17" y="23.34" width="2.46" height="2.46" transform="translate(0.31 49.89) rotate(-44.99)"/><rect class="cls-1" x="62.65" y="26.82" width="2.46" height="2.46" transform="translate(-1.13 53.37) rotate(-44.99)"/><rect class="cls-1" x="66.13" y="30.3" width="2.46" height="2.46" transform="translate(-2.57 56.85) rotate(-44.99)"/><rect class="cls-1" x="69.61" y="33.78" width="2.46" height="2.46" transform="translate(-4 60.36) rotate(-45.01)"/><polygon class="cls-1" points="38.49 19.35 45.96 11.87 53.44 19.35 55.18 17.61 45.96 8.39 36.75 17.61 38.49 19.35"/><polygon class="cls-1" points="17.62 36.77 19.35 38.49 8.51 49.32 8.51 68.14 19.35 78.97 17.62 80.7 5.96 69.03 5.96 48.43 17.62 36.77"/><polygon class="cls-1" points="74.3 36.77 72.58 38.49 83.42 49.32 83.42 68.14 72.58 78.97 74.3 80.7 85.97 69.03 85.97 48.43 74.3 36.77"/><path class="cls-1" d="M211.63,101a5.59,5.59,0,0,0,.65-.66,1.66,1.66,0,0,1,.26-.29l.1-.15.07-.11.93.91a5.64,5.64,0,0,1-3.95,1.94,6.46,6.46,0,0,1-5.54-2.87,11.76,11.76,0,0,1,0-12.71,6.44,6.44,0,0,1,5.54-2.88,5.63,5.63,0,0,1,3.95,2l-.93.91-.25-.31-.28-.34a4.62,4.62,0,0,0-.65-.62,2.92,2.92,0,0,0-1.84-.71,4.7,4.7,0,0,0-4.17,2.61,11.11,11.11,0,0,0-1.37,5.75,11.28,11.28,0,0,0,1.37,5.75,4.71,4.71,0,0,0,4.17,2.59A3,3,0,0,0,211.63,101Z"/><path class="cls-1" d="M242.76,98.67h-6.23l-.82,3.52h-.91L239,84.6h2.26l4.17,17.59h-1.8Zm-.22-.87-2.89-12.22L236.76,97.8Z"/><path class="cls-1" d="M270.47,90.78a10.79,10.79,0,0,0,1.47,1l.86.48.88.48a17.9,17.9,0,0,1,3.21,2.08,3.9,3.9,0,0,1,1.46,2.88,4.28,4.28,0,0,1-1.84,3.57,7.84,7.84,0,0,1-4.75,1.36,6.28,6.28,0,0,1-4.6-1.94l.91-.91a5.12,5.12,0,0,0,2.47,1.74,5,5,0,0,0,2.76.12,4.33,4.33,0,0,0,2.26-1.29,3.53,3.53,0,0,0,.93-2.45A3.07,3.07,0,0,0,275,95.62a11.73,11.73,0,0,0-1.48-.94l-.85-.48-.88-.5a17,17,0,0,1-3.21-2.13,4,4,0,0,1-1.46-2.92,3.88,3.88,0,0,1,1.39-3.07,7,7,0,0,1,4.77-1.42,6.26,6.26,0,0,1,4.6,2L277,87a4.9,4.9,0,0,0-2.28-1.66,5.24,5.24,0,0,0-2.61-.28,3.86,3.86,0,0,0-2.17,1.06,2.91,2.91,0,0,0,.59,4.65Z"/><path class="cls-1" d="M301.33,102.19V84.6h1.77v17.59Z"/><path class="cls-1" d="M338.63,84.6v17.59h-1.48L327.63,87v15.22h-.88V84.6h1.48l9.52,15.22V84.6Z"/><path class="cls-1" d="M374.35,86.87a10.86,10.86,0,0,1,0,13.06,6.56,6.56,0,0,1-10.59,0,10.86,10.86,0,0,1,0-13.06,6.52,6.52,0,0,1,10.59,0ZM365.1,99.29a4.43,4.43,0,0,0,7.91,0,11.34,11.34,0,0,0,0-11.8,4.41,4.41,0,0,0-7.91,0,11.34,11.34,0,0,0,0,11.8Z"/><rect class="cls-1" x="445.47" y="92.22" width="4.13" height="4.13" transform="translate(64.37 344.01) rotate(-44.99)"/><rect class="cls-1" x="434.66" y="91.86" width="4.85" height="4.85" transform="translate(61.39 336.74) rotate(-45.01)"/><rect class="cls-1" x="421.94" y="91.43" width="5.71" height="5.71" transform="translate(57.75 327.99) rotate(-45)"/><rect class="cls-1" x="406.98" y="90.93" width="6.72" height="6.72" transform="translate(53.52 317.77) rotate(-45)"/><rect class="cls-1" x="129.15" y="92.22" width="4.13" height="4.13" transform="translate(-28.24 120.42) rotate(-45.01)"/><rect class="cls-1" x="139.23" y="91.86" width="4.86" height="4.86" transform="translate(-25.18 127.78) rotate(-45)"/><rect class="cls-1" x="151.09" y="91.43" width="5.71" height="5.71" transform="translate(-21.58 136.47) rotate(-45)"/><rect class="cls-1" x="165.04" y="90.93" width="6.72" height="6.72" transform="translate(-17.35 146.69) rotate(-45)"/></g></g></svg>